<svg xmlns="http://www.w3.org/2000/svg" width="634" height="634" viewBox="0 0 634 634"><rect width="100%" height="100%" fill="#DDDDDD"/><path fill="#999999" d="m165.315 286.635-18.02 22.05-2.1 2.6q1.77-.88 3.8-1.36 2.04-.49 4.39-.49 3.45 0 6.7 1.14 3.26 1.13 5.73 3.42 2.48 2.29 3.99 5.69 1.52 3.4 1.52 7.94 0 4.24-1.56 7.96-1.55 3.72-4.37 6.49-2.81 2.77-6.78 4.37-3.97 1.59-8.76 1.59-4.87 0-8.73-1.55-3.87-1.56-6.6-4.35-2.73-2.79-4.18-6.72-1.44-3.93-1.44-8.71 0-4.29 1.74-8.8 1.74-4.52 5.4-9.39l14.49-19.45q.75-1 2.2-1.72 1.45-.71 3.34-.71h9.24Zm-15.67 52.92q2.48 0 4.56-.84 2.08-.84 3.57-2.35 1.49-1.52 2.33-3.55.84-2.04.84-4.43 0-2.61-.8-4.69-.79-2.08-2.26-3.53-1.47-1.44-3.53-2.2-2.06-.76-4.54-.76t-4.49.84q-2.02.84-3.45 2.33-1.42 1.5-2.22 3.53-.8 2.04-.8 4.39 0 2.52.69 4.6.7 2.08 2.06 3.55 1.37 1.47 3.38 2.29 2.02.82 4.66.82Zm34.44-35.03-5.46-.97q.63-4.36 2.44-7.66t4.51-5.5q2.71-2.21 6.22-3.32 3.51-1.11 7.54-1.11 4.2 0 7.58 1.19 3.38 1.2 5.78 3.32 2.39 2.12 3.67 4.98 1.28 2.85 1.28 6.17 0 2.9-.65 5.1-.65 2.21-1.87 3.85-1.22 1.64-3.02 2.77-1.81 1.13-4.08 1.89 5.46 1.72 8.15 5.25 2.69 3.53 2.69 8.86 0 4.54-1.68 8.02-1.68 3.49-4.54 5.86-2.85 2.38-6.61 3.59-3.76 1.22-7.96 1.22-4.58 0-7.98-1.05-3.4-1.05-5.92-3.11-2.52-2.05-4.29-5.04-1.76-2.98-3.02-6.88l4.58-1.89q1.8-.76 3.38-.4 1.57.35 2.29 1.7.75 1.47 1.66 2.9.9 1.42 2.16 2.54 1.26 1.11 2.96 1.8 1.7.7 4.05.7 2.65 0 4.62-.87 1.98-.86 3.3-2.24 1.32-1.39 1.97-3.09.66-1.7.66-3.42 0-2.19-.47-3.97-.46-1.79-1.93-3.05-1.47-1.26-4.22-1.97t-7.37-.71v-7.4q3.82-.04 6.34-.71 2.52-.67 4.01-1.87 1.49-1.2 2.08-2.88.59-1.68.59-3.69 0-4.29-2.39-6.51-2.4-2.23-6.39-2.23-1.85 0-3.4.53-1.55.52-2.79 1.47-1.24.94-2.08 2.2-.84 1.26-1.26 2.77-.72 1.94-1.87 2.57-1.16.63-3.26.29Zm50.15 19.95h18.48v-19.87q0-2.81.38-6.21l-18.86 26.08Zm27.51 0h7.65v6.01q0 .84-.55 1.44-.55.61-1.55.61h-5.55v14.83h-9.03v-14.83h-25.62q-1.05 0-1.85-.65-.79-.65-1-1.61l-1.1-5.25 28.77-38.43h9.83v37.88Zm74.38 8.99-5.5 5.42-14.24-14.24-14.36 14.32-5.5-5.42 14.36-14.4-13.69-13.7 5.46-5.46 13.69 13.7 13.61-13.61 5.54 5.46-13.65 13.65 14.28 14.28Zm64.89-46.83-18.01 22.05-2.1 2.6q1.76-.88 3.8-1.36 2.03-.49 4.39-.49 3.44 0 6.69 1.14 3.26 1.13 5.74 3.42 2.48 2.29 3.99 5.69 1.51 3.4 1.51 7.94 0 4.24-1.55 7.96-1.56 3.72-4.37 6.49-2.82 2.77-6.79 4.37-3.96 1.59-8.75 1.59-4.87 0-8.74-1.55-3.86-1.56-6.59-4.35-2.73-2.79-4.18-6.72-1.45-3.93-1.45-8.71 0-4.29 1.74-8.8 1.75-4.52 5.4-9.39l14.49-19.45q.76-1 2.2-1.72 1.45-.71 3.34-.71h9.24Zm-15.66 52.92q2.48 0 4.55-.84 2.08-.84 3.57-2.35 1.5-1.52 2.34-3.55.84-2.04.84-4.43 0-2.61-.8-4.69-.8-2.08-2.27-3.53-1.47-1.44-3.53-2.2-2.06-.76-4.53-.76-2.48 0-4.5.84-2.01.84-3.44 2.33-1.43 1.5-2.23 3.53-.8 2.04-.8 4.39 0 2.52.7 4.6.69 2.08 2.05 3.55 1.37 1.47 3.39 2.29 2.01.82 4.66.82Zm34.44-35.03-5.46-.97q.63-4.36 2.43-7.66 1.81-3.3 4.52-5.5 2.71-2.21 6.21-3.32 3.51-1.11 7.54-1.11 4.2 0 7.58 1.19 3.39 1.2 5.78 3.32t3.67 4.98q1.29 2.85 1.29 6.17 0 2.9-.66 5.1-.65 2.21-1.86 3.85-1.22 1.64-3.03 2.77-1.8 1.13-4.07 1.89 5.46 1.72 8.15 5.25 2.68 3.53 2.68 8.86 0 4.54-1.68 8.02-1.68 3.49-4.53 5.86-2.86 2.38-6.62 3.59-3.76 1.22-7.96 1.22-4.57 0-7.98-1.05-3.4-1.05-5.92-3.11-2.52-2.05-4.28-5.04-1.77-2.98-3.03-6.88l4.58-1.89q1.81-.76 3.38-.4 1.58.35 2.29 1.7.76 1.47 1.66 2.9.9 1.42 2.16 2.54 1.26 1.11 2.96 1.8 1.71.7 4.06.7 2.64 0 4.62-.87 1.97-.86 3.29-2.24 1.33-1.39 1.98-3.09.65-1.7.65-3.42 0-2.19-.46-3.97-.46-1.79-1.93-3.05-1.47-1.26-4.23-1.97-2.75-.71-7.37-.71v-7.4q3.83-.04 6.35-.71 2.52-.67 4.01-1.87 1.49-1.2 2.08-2.88.58-1.68.58-3.69 0-4.29-2.39-6.51-2.39-2.23-6.38-2.23-1.85 0-3.41.53-1.55.52-2.79 1.47-1.24.94-2.08 2.2-.84 1.26-1.26 2.77-.71 1.94-1.87 2.57-1.15.63-3.25.29Zm50.15 19.95h18.48v-19.87q0-2.81.37-6.21l-18.85 26.08Zm27.51 0h7.64v6.01q0 .84-.55 1.44-.54.61-1.55.61h-5.54v14.83h-9.03v-14.83h-25.62q-1.05 0-1.85-.65t-1.01-1.61l-1.09-5.25 28.77-38.43h9.83v37.88Z"/></svg>