<?xml version="1.0" encoding="UTF-8" standalone="no"?> <svg width="64" height="64" viewBox="0 0 64 64" fill="none" xmlns="http://www.w3.org/2000/svg">
<path d="M53 43.39C52.92 35.16 51.24 28.59 48 23.77C48.669 21.9201 49.0074 19.9671 49 18C49 13.4913 47.2089 9.1673 44.0208 5.97918C40.8327 2.79107 36.5087 1 32 1H2V3H24C21.2813 4.44995 19.0079 6.61151 17.4226 9.25357C15.8374 11.8956 15 14.9189 15 18C15 21.0811 15.8374 24.1044 17.4226 26.7464C19.0079 29.3885 21.2813 31.55 24 33H2V35H32.08C32.2863 35.4943 32.447 36.0064 32.56 36.53C33.2354 39.6484 33.6667 42.8146 33.85 46C33.41 45.75 32.99 45.47 32.55 45.18C31.1736 44.1595 29.5779 43.4746 27.89 43.18C27.41 41.33 25.44 40 23 40C20.2 40 18 41.76 18 44C18.0064 44.625 18.1902 45.2354 18.53 45.76C17.7526 46.2514 16.8969 46.6065 16 46.81C15.85 44.66 13.72 43 11 43C9.63032 42.9783 8.30003 43.4585 7.26 44.35C5.66616 43.42 3.84471 42.9525 2 43V45C3.97118 44.9575 5.89531 45.6047 7.44 46.83C9.31886 48.2734 11.631 49.0382 14 49C16.3659 49.0384 18.675 48.2734 20.55 46.83C22.0986 45.6048 24.0258 44.9576 26 45C27.9705 44.9616 29.8933 45.6085 31.44 46.83C33.3359 48.2369 35.6341 48.9964 37.995 48.9964C40.3559 48.9964 42.6541 48.2369 44.55 46.83C46.1159 45.6402 48.0284 44.996 49.995 44.996C51.9616 44.996 53.8741 45.6402 55.44 46.83C57.3196 48.272 59.6313 49.0367 62 49V47C60.0261 47.0407 58.0994 46.3937 56.55 45.17C55.4765 44.379 54.276 43.7771 53 43.39V43.39ZM14 47C12.2374 47.0603 10.5042 46.5365 9.07 45.51C9.6573 45.1733 10.323 44.9974 11 45C12.63 45 14 45.92 14 47ZM20.19 44.68C20.0688 44.4736 20.0033 44.2393 20 44C20 42.92 21.37 42 23 42C23.4756 41.9808 23.9501 42.0597 24.394 42.2317C24.8378 42.4037 25.2415 42.6653 25.58 43C23.6593 43.0307 21.788 43.6139 20.19 44.68V44.68ZM17 18C17 14.0218 18.5804 10.2064 21.3934 7.3934C24.2064 4.58035 28.0218 3 32 3C35.9782 3 39.7936 4.58035 42.6066 7.3934C45.4196 10.2064 47 14.0218 47 18C46.9974 19.2934 46.826 20.581 46.49 21.83C46.0453 21.3005 45.5712 20.7964 45.07 20.32L44.82 20.09C44.9345 19.3991 44.9947 18.7003 45 18C45.0013 16.249 44.649 14.5159 43.964 12.9044C43.279 11.293 42.2756 9.83657 41.0139 8.62249C39.7522 7.40842 38.2582 6.46174 36.6216 5.83925C34.9851 5.21677 33.2396 4.93131 31.49 5C28.5042 5.10732 25.6465 6.23981 23.3978 8.20691C21.1491 10.174 19.6465 12.8556 19.143 15.8006C18.6394 18.7456 19.1656 21.7741 20.633 24.3766C22.1005 26.9791 24.4195 28.9967 27.2 30.09C28.6843 30.6989 29.9717 31.7059 30.92 33C27.1318 32.7266 23.5884 31.0263 21.0049 28.2423C18.4214 25.4584 16.9901 21.798 17 18V18ZM50 43C47.6307 42.9594 45.3177 43.7245 43.44 45.17C41.8933 46.3915 39.9705 47.0384 38 47C37.2902 47.0045 36.5822 46.9273 35.89 46.77C35.7552 43.1898 35.3001 39.629 34.53 36.13C34.1745 34.3708 33.3869 32.7276 32.2383 31.3485C31.0896 29.9694 29.6159 28.8978 27.95 28.23C25.8297 27.3924 24.0221 25.9167 22.777 24.007C21.532 22.0973 20.911 19.848 21 17.57C21.1445 14.8135 22.3045 12.2081 24.2563 10.2563C26.2081 8.30449 28.8135 7.14449 31.57 7C33.0503 6.94209 34.5271 7.18379 35.9117 7.7106C37.2963 8.23742 38.5602 9.03849 39.6277 10.0658C40.6951 11.093 41.544 12.3253 42.1235 13.6887C42.703 15.0521 43.0011 16.5186 43 18C43 18.2 43 18.39 43 18.59C39.7958 16.2788 35.9507 15.0239 32 15L32.1 17C36.4542 17.0805 40.6193 18.7936 43.77 21.8C48.4 26.26 50.83 33.41 51 43C50.67 43 50.35 43 50 43Z" fill="black"/>
<path d="M50 49.9996C47.6307 49.959 45.3177 50.7241 43.44 52.1696C41.8741 53.3594 39.9616 54.0036 37.995 54.0036C36.0284 54.0036 34.1159 53.3594 32.55 52.1696C30.6742 50.7276 28.3657 49.9628 26 49.9996C23.631 49.9613 21.3189 50.7262 19.44 52.1696C17.8945 53.3934 15.9709 54.0404 14 53.9996C12.0261 54.0403 10.0994 53.3933 8.55 52.1696C6.67496 50.7262 4.36593 49.9612 2 49.9996V51.9996C3.97118 51.957 5.89531 52.6043 7.44 53.8296C9.31886 55.273 11.631 56.0378 14 55.9996C16.3659 56.0379 18.675 55.273 20.55 53.8296C22.0986 52.6044 24.0258 51.9572 26 51.9996C27.9705 51.9612 29.8933 52.608 31.44 53.8296C33.3359 55.2365 35.6341 55.996 37.995 55.996C40.3559 55.996 42.6541 55.2365 44.55 53.8296C46.1159 52.6398 48.0284 51.9956 49.995 51.9956C51.9616 51.9956 53.8741 52.6398 55.44 53.8296C57.3196 55.2716 59.6313 56.0363 62 55.9996V53.9996C60.0261 54.0403 58.0994 53.3933 56.55 52.1696C54.675 50.7262 52.3659 49.9612 50 49.9996V49.9996Z" fill="black"/>
<path d="M50 56.9996C47.6307 56.959 45.3177 57.7241 43.44 59.1696C41.8741 60.3594 39.9616 61.0036 37.995 61.0036C36.0284 61.0036 34.1159 60.3594 32.55 59.1696C30.6742 57.7276 28.3657 56.9628 26 56.9996C23.631 56.9613 21.3189 57.7262 19.44 59.1696C17.8945 60.3934 15.9709 61.0404 14 60.9996C12.0261 61.0403 10.0994 60.3933 8.55 59.1696C6.67496 57.7262 4.36593 56.9612 2 56.9996V58.9996C3.97118 58.957 5.89531 59.6043 7.44 60.8296C9.31886 62.273 11.631 63.0378 14 62.9996C16.3659 63.0379 18.675 62.273 20.55 60.8296C22.0986 59.6044 24.0258 58.9572 26 58.9996C27.9705 58.9612 29.8933 59.608 31.44 60.8296C33.3359 62.2365 35.6341 62.996 37.995 62.996C40.3559 62.996 42.6541 62.2365 44.55 60.8296C46.1159 59.6398 48.0284 58.9956 49.995 58.9956C51.9616 58.9956 53.8741 59.6398 55.44 60.8296C57.3196 62.2716 59.6313 63.0363 62 62.9996V60.9996C60.0261 61.0403 58.0994 60.3933 56.55 59.1696C54.675 57.7262 52.3659 56.9612 50 56.9996Z" fill="black"/>
<path d="M33.1394 22L32.8594 24C32.9194 24 39.1694 25 40.0194 29.21L42.0194 28.81C40.8494 23.17 33.4594 22.05 33.1394 22Z" fill="black"/>
<path d="M40 38H38V42H40V38Z" fill="black"/>
<path d="M47 34H45V38H47V34Z" fill="black"/>
</svg>
